{
    "accessors" : [
        {
            "bufferView" : 0,
            "componentType" : 5126,
            "count" : 30,
            "max" : [
                0.9510565400123596,
                1,
                1
            ],
            "min" : [
                -0.9510564804077148,
                -0.8090170621871948,
                0
            ],
            "type" : "VEC3"
        },
        {
            "bufferView" : 1,
            "componentType" : 5126,
            "count" : 30,
            "type" : "VEC3"
        },
        {
            "bufferView" : 2,
            "componentType" : 5121,
            "count" : 48,
            "type" : "SCALAR"
        },
        {
            "bufferView" : 3,
            "componentType" : 5126,
            "count" : 5,
            "max" : [
                0.9510565400123596,
                1,
                0
            ],
            "min" : [
                -0.9510564804077148,
                -0.8090170621871948,
                0
            ],
            "type" : "VEC3"
        },
        {
            "bufferView" : 4,
            "componentType" : 5126,
            "count" : 5,
            "type" : "VEC3"
        },
        {
            "bufferView" : 5,
            "componentType" : 5121,
            "count" : 9,
            "type" : "SCALAR"
        }
    ],
    "asset" : {
        "generator" : "Khronos Blender glTF 2.0 I/O",
        "version" : "2.0"
    },
    "bufferViews" : [
        {
            "buffer" : 0,
            "byteLength" : 360,
            "byteOffset" : 0
        },
        {
            "buffer" : 0,
            "byteLength" : 360,
            "byteOffset" : 360
        },
        {
            "buffer" : 0,
            "byteLength" : 48,
            "byteOffset" : 720
        },
        {
            "buffer" : 0,
            "byteLength" : 60,
            "byteOffset" : 768
        },
        {
            "buffer" : 0,
            "byteLength" : 60,
            "byteOffset" : 828
        },
        {
            "buffer" : 0,
            "byteLength" : 9,
            "byteOffset" : 888
        }
    ],
    "buffers" : [
        {
            "byteLength" : 900,
            "uri" : "pentagon.bin"
        }
    ],
    "extensions" : {},
    "meshes" : [
        {
            "name" : "Pentagon",
            "primitives" : [
                {
                    "attributes" : {
                        "NORMAL" : 1,
                        "POSITION" : 0
                    },
                    "indices" : 2
                }
            ]
        },
        {
            "name" : "Collision",
            "primitives" : [
                {
                    "attributes" : {
                        "NORMAL" : 4,
                        "POSITION" : 3
                    },
                    "indices" : 5
                }
            ]
        }
    ],
    "nodes" : [
        {
            "mesh" : 0,
            "name" : "Pentagon",
            "rotation" : [
                0,
                0,
                0.7071068286895752,
                0.7071067690849304
            ]
        },
        {
            "mesh" : 1,
            "name" : "Collision"
        }
    ],
    "scene" : 0,
    "scenes" : [
        {
            "name" : "Scene",
            "nodes" : [
                0,
                1
            ]
        }
    ]
}
