{
    "accessors" : [
        {
            "bufferView" : 0,
            "componentType" : 5126,
            "count" : 18,
            "max" : [
                1,
                1.3055555820465088,
                1.0092592239379883
            ],
            "min" : [
                -1,
                -0.6944444179534912,
                0.009259283542633057
            ],
            "type" : "VEC3"
        },
        {
            "bufferView" : 1,
            "componentType" : 5126,
            "count" : 18,
            "type" : "VEC3"
        },
        {
            "bufferView" : 2,
            "componentType" : 5121,
            "count" : 24,
            "type" : "SCALAR"
        },
        {
            "bufferView" : 3,
            "componentType" : 5126,
            "count" : 3,
            "max" : [
                1,
                1.3055555820465088,
                0.009259283542633057
            ],
            "min" : [
                -1,
                -0.6944444179534912,
                0.009259283542633057
            ],
            "type" : "VEC3"
        },
        {
            "bufferView" : 4,
            "componentType" : 5126,
            "count" : 3,
            "type" : "VEC3"
        },
        {
            "bufferView" : 5,
            "componentType" : 5121,
            "count" : 3,
            "type" : "SCALAR"
        }
    ],
    "asset" : {
        "generator" : "Khronos Blender glTF 2.0 I/O",
        "version" : "2.0"
    },
    "bufferViews" : [
        {
            "buffer" : 0,
            "byteLength" : 216,
            "byteOffset" : 0
        },
        {
            "buffer" : 0,
            "byteLength" : 216,
            "byteOffset" : 216
        },
        {
            "buffer" : 0,
            "byteLength" : 24,
            "byteOffset" : 432
        },
        {
            "buffer" : 0,
            "byteLength" : 36,
            "byteOffset" : 456
        },
        {
            "buffer" : 0,
            "byteLength" : 36,
            "byteOffset" : 492
        },
        {
            "buffer" : 0,
            "byteLength" : 3,
            "byteOffset" : 528
        }
    ],
    "buffers" : [
        {
            "byteLength" : 532,
            "uri" : "triangle.bin"
        }
    ],
    "extensions" : {},
    "meshes" : [
        {
            "name" : "Triangle",
            "primitives" : [
                {
                    "attributes" : {
                        "NORMAL" : 1,
                        "POSITION" : 0
                    },
                    "indices" : 2
                }
            ]
        },
        {
            "name" : "Collision",
            "primitives" : [
                {
                    "attributes" : {
                        "NORMAL" : 4,
                        "POSITION" : 3
                    },
                    "indices" : 5
                }
            ]
        }
    ],
    "nodes" : [
        {
            "mesh" : 0,
            "name" : "Triangle"
        },
        {
            "mesh" : 1,
            "name" : "Collision"
        }
    ],
    "scene" : 0,
    "scenes" : [
        {
            "name" : "Scene",
            "nodes" : [
                0,
                1
            ]
        }
    ]
}
